
      <svg width="800" height="600" xmlns="http://www.w3.org/2000/svg">
        <!-- Filters for shadows and effects -->
        <defs>
          <filter id="shadow" x="-2" y="-2" width="104%" height="104%">
            <feDropShadow dx="2" dy="2" stdDeviation="2" flood-opacity="0.3" />
          </filter>
          <linearGradient id="modernGradient" x1="0%" y1="0%" x2="100%" y2="100%">
            <stop offset="0%" stop-color="#f8f9fa" />
            <stop offset="100%" stop-color="#e9ecef" />
          </linearGradient>
        </defs>

        <!-- Background with subtle grid -->
        <rect width="800" height="600" fill="#F8F9FA" />
        <pattern id="smallGrid" width="10" height="10" patternUnits="userSpaceOnUse">
          <path d="M 10 0 L 0 0 0 10" fill="none" stroke="#E9ECEF" stroke-width="0.5" />
        </pattern>
        <rect width="800" height="600" fill="url(#smallGrid)" />

        <!-- Outer walls with shadow effect -->
        <rect x="55" y="55" width="690" height="490" fill="#E9ECEF" rx="2" ry="2" />
        <rect x="50" y="50" width="690" height="490" fill="none" stroke="#212529" stroke-width="4" rx="2" ry="2" />

        <!-- Main Gate/Entrance with better styling -->
        <rect x="350" y="46" width="100" height="8" fill="#495057" rx="2" ry="2" />
        <text x="400" y="38" font-family="Arial" font-size="12" font-weight="bold" text-anchor="middle" fill="#212529">Main Entrance</text>

        <!-- Dimensions -->
        <line x1="50" y1="570" x2="740" y2="570" stroke="#495057" stroke-width="1" />
        <line x1="50" y1="565" x2="50" y2="575" stroke="#495057" stroke-width="1" />
        <line x1="740" y1="565" x2="740" y2="575" stroke="#495057" stroke-width="1" />
        <text x="395" y="585" font-family="Arial" font-size="12" text-anchor="middle" fill="#212529">30 ft</text>

        <line x1="30" y1="50" x2="30" y2="540" stroke="#495057" stroke-width="1" />
        <line x1="25" y1="50" x2="35" y2="50" stroke="#495057" stroke-width="1" />
        <line x1="25" y1="540" x2="35" y2="540" stroke="#495057" stroke-width="1" />
        <text x="15" y="295" font-family="Arial" font-size="12" text-anchor="middle" transform="rotate(270, 15, 295)" fill="#212529">40 ft</text>

        <!-- Dimensions -->
        <line x1="50" y1="570" x2="750" y2="570" stroke="#000000" stroke-width="1" />
        <line x1="50" y1="565" x2="50" y2="575" stroke="#000000" stroke-width="1" />
        <line x1="750" y1="565" x2="750" y2="575" stroke="#000000" stroke-width="1" />
        <text x="400" y="585" font-family="Arial" font-size="12" text-anchor="middle">20 acres</text>

        <line x1="30" y1="50" x2="30" y2="550" stroke="#000000" stroke-width="1" />
        <line x1="25" y1="50" x2="35" y2="50" stroke="#000000" stroke-width="1" />
        <line x1="25" y1="550" x2="35" y2="550" stroke="#000000" stroke-width="1" />
        <text x="15" y="300" font-family="Arial" font-size="12" text-anchor="middle" transform="rotate(270, 15, 300)">20 acres</text>

        <!-- Living area with gradient and rounded corners -->
        <rect x="100" y="100" width="300" height="200" rx="5" ry="5" fill="#FFCCBC" filter="url(#shadow)" />
        <text x="250" y="200" font-family="Arial" font-size="16" font-weight="bold" text-anchor="middle" fill="#212529">Living Room</text>
        <text x="250" y="220" font-family="Arial" font-size="10" text-anchor="middle" fill="#495057">91 × 61 ft</text>

        <!-- Kitchen with gradient and rounded corners -->
        <rect x="400" y="100" width="200" height="150" rx="5" ry="5" fill="#FFECB3" filter="url(#shadow)" />
        <text x="500" y="175" font-family="Arial" font-size="16" font-weight="bold" text-anchor="middle" fill="#212529">Kitchen</text>
        <text x="500" y="195" font-family="Arial" font-size="10" text-anchor="middle" fill="#495057">61 × 46 ft</text>

        <!-- Dining with gradient and rounded corners -->
        <rect x="400" y="250" width="200" height="150" rx="5" ry="5" fill="#D7CCC8" filter="url(#shadow)" />
        <text x="500" y="325" font-family="Arial" font-size="16" font-weight="bold" text-anchor="middle" fill="#212529">Dining</text>
        <text x="500" y="345" font-family="Arial" font-size="10" text-anchor="middle" fill="#495057">61 × 46 ft</text>

        <!-- Master Bedroom with gradient and rounded corners -->
        <rect x="100" y="300" width="200" height="200" rx="5" ry="5" fill="#B3E5FC" filter="url(#shadow)" />
        <text x="200" y="400" font-family="Arial" font-size="16" font-weight="bold" text-anchor="middle" fill="#212529">Master Bedroom</text>
        <text x="200" y="420" font-family="Arial" font-size="10" text-anchor="middle" fill="#495057">61 × 61 ft</text>

        <!-- Bathroom with gradient and rounded corners -->
        <rect x="300" y="300" width="100" height="100" rx="5" ry="5" fill="#B2DFDB" filter="url(#shadow)" />
        <text x="350" y="350" font-family="Arial" font-size="14" font-weight="bold" text-anchor="middle" fill="#212529">Bath</text>
        <text x="350" y="365" font-family="Arial" font-size="10" text-anchor="middle" fill="#495057">30 × 30 ft</text>

        

        
        <!-- Bedroom 2 with gradient and rounded corners -->
        <rect x="600" y="200" width="100" height="150" rx="5" ry="5" fill="#B3E5FC" filter="url(#shadow)" />
        <text x="650" y="275" font-family="Arial" font-size="14" font-weight="bold" text-anchor="middle" fill="#212529">Bedroom</text>
        <text x="650" y="290" font-family="Arial" font-size="10" text-anchor="middle" fill="#495057">30 × 46 ft</text>
        

        
        <!-- Bathroom 2 with gradient and rounded corners -->
        <rect x="600" y="350" width="100" height="100" rx="5" ry="5" fill="#B2DFDB" filter="url(#shadow)" />
        <text x="650" y="400" font-family="Arial" font-size="14" font-weight="bold" text-anchor="middle" fill="#212529">Bath</text>
        <text x="650" y="415" font-family="Arial" font-size="10" text-anchor="middle" fill="#495057">30 × 30 ft</text>
        

        

        <!-- Title and Info -->
        <text x="400" y="30" font-family="Arial" font-size="20" font-weight="bold" text-anchor="middle">Modern Style Floor Plan</text>
        <text x="700" y="580" font-family="Arial" font-size="12" text-anchor="end">Generated by BuildWise.ai</text>
      </svg>
      