
      <svg width="800" height="600" xmlns="http://www.w3.org/2000/svg">
        <!-- Background -->
        <rect width="800" height="600" fill="#FFFFFF" />

        <!-- Outer walls -->
        <rect x="50" y="50" width="700" height="500" fill="none" stroke="#333333" stroke-width="8" />

        <!-- Living Room -->
        <rect x="100" y="100" width="300" height="200" fill="#FFCCBC" />
        <text x="250" y="200" font-family="Arial" font-size="16" text-anchor="middle">Living Room</text>

        <!-- Kitchen -->
        <rect x="400" y="100" width="300" height="150" fill="#FFECB3" />
        <text x="550" y="175" font-family="Arial" font-size="16" text-anchor="middle">Kitchen</text>

        <!-- Dining -->
        <rect x="400" y="250" width="300" height="100" fill="#D7CCC8" />
        <text x="550" y="300" font-family="Arial" font-size="16" text-anchor="middle">Dining</text>

        <!-- Master Bedroom -->
        <rect x="100" y="300" width="200" height="200" fill="#B3E5FC" />
        <text x="200" y="400" font-family="Arial" font-size="16" text-anchor="middle">Master Bedroom</text>

        <!-- Bathroom -->
        <rect x="300" y="300" width="100" height="100" fill="#B2DFDB" />
        <text x="350" y="350" font-family="Arial" font-size="14" text-anchor="middle">Bath</text>

        
        <!-- Bedroom 2 -->
        <rect x="400" y="350" width="150" height="150" fill="#B3E5FC" />
        <text x="475" y="425" font-family="Arial" font-size="14" text-anchor="middle">Bedroom</text>
        

        
        <!-- Bedroom 3 -->
        <rect x="550" y="350" width="150" height="150" fill="#B3E5FC" />
        <text x="625" y="425" font-family="Arial" font-size="14" text-anchor="middle">Bedroom</text>
        

        
        <!-- Outdoor Space -->
        <rect x="50" y="550" width="700" height="30" fill="#C8E6C9" />
        <text x="400" y="570" font-family="Arial" font-size="14" text-anchor="middle">Outdoor Space</text>
        

        <!-- Title and Info -->
        <text x="400" y="30" font-family="Arial" font-size="20" font-weight="bold" text-anchor="middle">Farmhouse Style Floor Plan</text>
        <text x="700" y="580" font-family="Arial" font-size="12" text-anchor="end">Generated by BuildWise.ai</text>
      </svg>
      