<?xml version="1.0" encoding="UTF-8" standalone="no"?>
<svg width="800" height="600" xmlns="http://www.w3.org/2000/svg">
  <rect width="100%" height="100%" fill="#f8f8f8" />
  
  <!-- House outline -->
  
      <rect x="100" y="100" width="600" height="400" fill="none" stroke="#333" stroke-width="3" />
      <line x1="100" y1="100" x2="700" y2="100" stroke="#333" stroke-width="5" />
    
  
  <!-- Rooms -->
  
    <rect x="120" y="120" width="250" height="200" fill="none" stroke="#666" stroke-width="2" />
    <text x="180" y="220" font-family="Arial" font-size="16">Living Room</text>
  
    <rect x="370" y="120" width="200" height="150" fill="none" stroke="#666" stroke-width="2" />
    <text x="430" y="195" font-family="Arial" font-size="16">Kitchen</text>
  
      <rect x="120" y="320" width="250" height="130" fill="none" stroke="#666" stroke-width="2" />
      <text x="190" y="390" font-family="Arial" font-size="16">Bedroom 1</text>
    
      <rect x="400" y="320" width="250" height="130" fill="none" stroke="#666" stroke-width="2" />
      <text x="470" y="390" font-family="Arial" font-size="16">Bedroom 2</text>
    
      <rect x="120" y="470" width="250" height="130" fill="none" stroke="#666" stroke-width="2" />
      <text x="190" y="540" font-family="Arial" font-size="16">Bedroom 3</text>
    
      <rect x="570" y="320" width="110" height="110" fill="none" stroke="#666" stroke-width="2" />
      <text x="590" y="380" font-family="Arial" font-size="14">Bath 1</text>
    
      <rect x="570" y="450" width="110" height="110" fill="none" stroke="#666" stroke-width="2" />
      <text x="590" y="510" font-family="Arial" font-size="14">Bath 2</text>
    
  
  <!-- Floor plan title -->
  <text x="400" y="30" font-family="Arial" font-size="20" text-anchor="middle" font-weight="bold">Modern House Floor Plan</text>
  <text x="400" y="55" font-family="Arial" font-size="14" text-anchor="middle">3 Bedrooms, 2 Bathrooms, 2200 sq ft</text>
  
  <!-- Scale -->
  <line x1="100" y1="550" x2="300" y2="550" stroke="#333" stroke-width="2" />
  <text x="200" y="570" font-family="Arial" font-size="12" text-anchor="middle">20 ft</text>
</svg>