<?xml version="1.0" encoding="UTF-8"?>
<svg width="64" height="64" viewBox="0 0 64 64" fill="none" xmlns="http://www.w3.org/2000/svg">
  <!-- Gradient Definitions -->
  <defs>
    <linearGradient id="buildingGradient" x1="0%" y1="0%" x2="100%" y2="100%">
      <stop offset="0%" stop-color="#0e7490" /> <!-- cyan-700 -->
      <stop offset="100%" stop-color="#0f766e" /> <!-- teal-700 -->
    </linearGradient>

    <linearGradient id="glowGradient" x1="0%" y1="0%" x2="100%" y2="100%">
      <stop offset="0%" stop-color="#22d3ee" /> <!-- cyan-400 -->
      <stop offset="100%" stop-color="#2dd4bf" /> <!-- teal-400 -->
    </linearGradient>

    <filter id="glow" x="-20%" y="-20%" width="140%" height="140%">
      <feGaussianBlur stdDeviation="1" result="blur" />
      <feComposite in="SourceGraphic" in2="blur" operator="over" />
    </filter>

    <clipPath id="hexClip">
      <path d="M32,4 L57,19 L57,49 L32,64 L7,49 L7,19 Z" />
    </clipPath>
  </defs>

  <!-- Logo Mark - Hexagonal Building with Blueprint -->
  <g>
    <!-- Hexagonal Frame -->
    <path d="M32,4 L57,19 L57,49 L32,64 L7,49 L7,19 Z"
          fill="url(#buildingGradient)"
          stroke="#0891b2"
          stroke-width="1.5" />

    <!-- Blueprint Grid Lines -->
    <g clip-path="url(#hexClip)">
      <!-- Horizontal Grid Lines -->
      <path d="M7,19 L57,19 M7,29 L57,29 M7,39 L57,39 M7,49 L57,49"
            stroke="#a5f3fc"
            stroke-width="0.5"
            stroke-dasharray="1 1"
            opacity="0.7" />

      <!-- Vertical Grid Lines -->
      <path d="M17,9 L17,59 M27,4 L27,64 M37,4 L37,64 M47,9 L47,59"
            stroke="#a5f3fc"
            stroke-width="0.5"
            stroke-dasharray="1 1"
            opacity="0.7" />

      <!-- Building Outline -->
      <path d="M17,49 L17,24 L32,14 L47,24 L47,49 L17,49 Z"
            fill="none"
            stroke="#22d3ee"
            stroke-width="1.2" />

      <!-- Rooms -->
      <path d="M17,24 L32,24 L32,39 L17,39 Z"
            fill="#0e7490"
            fill-opacity="0.3"
            stroke="#22d3ee"
            stroke-width="0.8" />

      <path d="M32,24 L47,24 L47,39 L32,39 Z"
            fill="#0e7490"
            fill-opacity="0.3"
            stroke="#22d3ee"
            stroke-width="0.8" />

      <path d="M17,39 L32,39 L32,49 L17,49 Z"
            fill="#0e7490"
            fill-opacity="0.3"
            stroke="#22d3ee"
            stroke-width="0.8" />

      <path d="M32,39 L47,39 L47,49 L32,49 Z"
            fill="#0e7490"
            fill-opacity="0.3"
            stroke="#22d3ee"
            stroke-width="0.8" />

      <!-- Door -->
      <path d="M29,49 L35,49 L35,43 L29,43 Z"
            fill="#0891b2"
            stroke="#22d3ee"
            stroke-width="0.8" />

      <!-- Windows -->
      <rect x="21" y="29" width="7" height="5" rx="1"
            fill="#ecfeff"
            fill-opacity="0.9"
            stroke="#22d3ee"
            stroke-width="0.5" />

      <rect x="36" y="29" width="7" height="5" rx="1"
            fill="#ecfeff"
            fill-opacity="0.9"
            stroke="#22d3ee"
            stroke-width="0.5" />
    </g>

    <!-- AI Circuit Pattern -->
    <g>
      <!-- Nodes -->
      <circle cx="32" cy="4" r="1.5" fill="#22d3ee" />
      <circle cx="7" cy="19" r="1.5" fill="#22d3ee" />
      <circle cx="57" cy="19" r="1.5" fill="#22d3ee" />
      <circle cx="7" cy="49" r="1.5" fill="#22d3ee" />
      <circle cx="57" cy="49" r="1.5" fill="#22d3ee" />
      <circle cx="32" cy="64" r="1.5" fill="#22d3ee" />

      <!-- Connections -->
      <path d="M32,4 L7,19 M32,4 L57,19 M7,19 L7,49 M57,19 L57,49 M7,49 L32,64 M57,49 L32,64"
            stroke="#22d3ee"
            stroke-width="0.8"
            opacity="0.7" />

      <!-- Pulse Animation (Simulated with Gradient) -->
      <path d="M32,4 L7,19 L7,49 L32,64 L57,49 L57,19 Z"
            stroke="url(#glowGradient)"
            stroke-width="0.5"
            fill="none"
            opacity="0.5"
            filter="url(#glow)" />
    </g>
  </g>
</svg>
