<?xml version="1.0" encoding="UTF-8"?>
<svg width="220" height="60" viewBox="0 0 220 60" fill="none" xmlns="http://www.w3.org/2000/svg">
  <!-- Gradient Definitions -->
  <defs>
    <linearGradient id="textGradient" x1="0%" y1="0%" x2="100%" y2="0%">
      <stop offset="0%" stop-color="#06b6d4" /> <!-- cyan-500 -->
      <stop offset="50%" stop-color="#0ea5e9" /> <!-- sky-500 -->
      <stop offset="100%" stop-color="#14b8a6" /> <!-- teal-500 -->
    </linearGradient>
    
    <linearGradient id="buildingGradient" x1="0%" y1="0%" x2="100%" y2="100%">
      <stop offset="0%" stop-color="#155e75" /> <!-- cyan-800 -->
      <stop offset="100%" stop-color="#0f766e" /> <!-- teal-700 -->
    </linearGradient>
    
    <linearGradient id="floorplanGradient" x1="0%" y1="0%" x2="100%" y2="100%">
      <stop offset="0%" stop-color="#22d3ee" opacity="0.8" /> <!-- cyan-400 -->
      <stop offset="100%" stop-color="#2dd4bf" opacity="0.8" /> <!-- teal-400 -->
    </linearGradient>
    
    <filter id="glow" x="-20%" y="-20%" width="140%" height="140%">
      <feGaussianBlur stdDeviation="1.5" result="blur" />
      <feComposite in="SourceGraphic" in2="blur" operator="over" />
    </filter>
  </defs>
  
  <!-- Logo Mark - 3D Building with Floor Plan -->
  <g transform="translate(10, 10)">
    <!-- 3D Building Base -->
    <path d="M5 40L5 15L20 5L35 15L35 40L5 40Z" fill="url(#buildingGradient)" stroke="#0891b2" stroke-width="1.5" />
    
    <!-- 3D Effect - Side Face -->
    <path d="M35 40L45 35L45 10L35 15L35 40Z" fill="#0f766e" stroke="#0891b2" stroke-width="1.5" />
    
    <!-- 3D Effect - Top Face -->
    <path d="M5 15L15 10L30 20L20 5L5 15Z" fill="#0e7490" stroke="#0891b2" stroke-width="1.5" />
    <path d="M30 20L45 10L35 15L20 5L30 20Z" fill="#0d9488" stroke="#0891b2" stroke-width="1.5" />
    
    <!-- Floor Plan Overlay -->
    <g opacity="0.9">
      <!-- Floor Plan Grid -->
      <path d="M10 35H30M10 30H30M10 25H30M10 20H30M15 20V35M20 20V35M25 20V35" 
            stroke="#a5f3fc" stroke-width="0.5" stroke-dasharray="1 1" />
      
      <!-- Floor Plan Rooms -->
      <path d="M10 20H20V30H10V20Z" fill="url(#floorplanGradient)" fill-opacity="0.2" stroke="#a5f3fc" stroke-width="0.8" />
      <path d="M20 20H30V25H20V20Z" fill="url(#floorplanGradient)" fill-opacity="0.2" stroke="#a5f3fc" stroke-width="0.8" />
      <path d="M20 25H30V35H20V25Z" fill="url(#floorplanGradient)" fill-opacity="0.2" stroke="#a5f3fc" stroke-width="0.8" />
      <path d="M10 30H20V35H10V30Z" fill="url(#floorplanGradient)" fill-opacity="0.2" stroke="#a5f3fc" stroke-width="0.8" />
    </g>
    
    <!-- AI Circuit Pattern -->
    <g opacity="0.8">
      <circle cx="20" cy="5" r="1.2" fill="#22d3ee" />
      <circle cx="5" cy="15" r="1.2" fill="#22d3ee" />
      <circle cx="35" cy="15" r="1.2" fill="#22d3ee" />
      <circle cx="45" cy="10" r="1.2" fill="#22d3ee" />
      <path d="M20 5L5 15" stroke="#22d3ee" stroke-width="0.8" />
      <path d="M20 5L35 15" stroke="#22d3ee" stroke-width="0.8" />
      <path d="M35 15L45 10" stroke="#22d3ee" stroke-width="0.8" />
      <path d="M5 15L45 10" stroke="#22d3ee" stroke-width="0.8" opacity="0.5" />
    </g>
    
    <!-- Glow Effect -->
    <path d="M5 40L5 15L20 5L35 15L35 40L5 40Z" stroke="#22d3ee" stroke-width="0.5" filter="url(#glow)" opacity="0.6" />
  </g>
  
  <!-- Text: BuildWise -->
  <text x="65" y="35" font-family="'Segoe UI', Arial, sans-serif" font-weight="700" font-size="24" fill="url(#textGradient)" filter="url(#glow)">BuildWise</text>
  
  <!-- Text: .ai -->
  <text x="175" y="35" font-family="'Segoe UI', Arial, sans-serif" font-weight="700" font-size="24" fill="#0891b2">.ai</text>
  
  <!-- Tagline -->
  <text x="65" y="48" font-family="'Segoe UI', Arial, sans-serif" font-size="9" fill="#94a3b8">AI-Powered Floor Plans</text>
</svg>
