<?xml version="1.0" encoding="UTF-8"?>
<svg width="240" height="60" viewBox="0 0 240 60" fill="none" xmlns="http://www.w3.org/2000/svg">
  <!-- Gradient Definitions -->
  <defs>
    <linearGradient id="textGradient" x1="0%" y1="0%" x2="100%" y2="0%">
      <stop offset="0%" stop-color="#06b6d4" /> <!-- cyan-500 -->
      <stop offset="100%" stop-color="#14b8a6" /> <!-- teal-500 -->
    </linearGradient>
    
    <linearGradient id="buildingGradient" x1="0%" y1="0%" x2="100%" y2="100%">
      <stop offset="0%" stop-color="#0e7490" /> <!-- cyan-700 -->
      <stop offset="100%" stop-color="#0f766e" /> <!-- teal-700 -->
    </linearGradient>
    
    <linearGradient id="glowGradient" x1="0%" y1="0%" x2="100%" y2="100%">
      <stop offset="0%" stop-color="#22d3ee" /> <!-- cyan-400 -->
      <stop offset="100%" stop-color="#2dd4bf" /> <!-- teal-400 -->
    </linearGradient>
    
    <filter id="glow" x="-20%" y="-20%" width="140%" height="140%">
      <feGaussianBlur stdDeviation="1" result="blur" />
      <feComposite in="SourceGraphic" in2="blur" operator="over" />
    </filter>
    
    <clipPath id="hexClip">
      <path d="M30,5 L55,20 L55,50 L30,65 L5,50 L5,20 Z" />
    </clipPath>
  </defs>
  
  <!-- Logo Mark - Hexagonal Building with Blueprint -->
  <g transform="translate(5, -5)">
    <!-- Hexagonal Frame -->
    <path d="M30,5 L55,20 L55,50 L30,65 L5,50 L5,20 Z" 
          fill="url(#buildingGradient)" 
          stroke="#0891b2" 
          stroke-width="1.5" />
    
    <!-- Blueprint Grid Lines -->
    <g clip-path="url(#hexClip)">
      <!-- Horizontal Grid Lines -->
      <path d="M5,20 L55,20 M5,30 L55,30 M5,40 L55,40 M5,50 L55,50" 
            stroke="#a5f3fc" 
            stroke-width="0.5" 
            stroke-dasharray="1 1" 
            opacity="0.7" />
      
      <!-- Vertical Grid Lines -->
      <path d="M15,10 L15,60 M25,5 L25,65 M35,5 L35,65 M45,10 L45,60" 
            stroke="#a5f3fc" 
            stroke-width="0.5" 
            stroke-dasharray="1 1" 
            opacity="0.7" />
      
      <!-- Building Outline -->
      <path d="M15,50 L15,25 L30,15 L45,25 L45,50 L15,50 Z" 
            fill="none" 
            stroke="#22d3ee" 
            stroke-width="1.2" />
      
      <!-- Rooms -->
      <path d="M15,25 L30,25 L30,40 L15,40 Z" 
            fill="#0e7490" 
            fill-opacity="0.3" 
            stroke="#22d3ee" 
            stroke-width="0.8" />
      
      <path d="M30,25 L45,25 L45,40 L30,40 Z" 
            fill="#0e7490" 
            fill-opacity="0.3" 
            stroke="#22d3ee" 
            stroke-width="0.8" />
      
      <path d="M15,40 L30,40 L30,50 L15,50 Z" 
            fill="#0e7490" 
            fill-opacity="0.3" 
            stroke="#22d3ee" 
            stroke-width="0.8" />
      
      <path d="M30,40 L45,40 L45,50 L30,50 Z" 
            fill="#0e7490" 
            fill-opacity="0.3" 
            stroke="#22d3ee" 
            stroke-width="0.8" />
      
      <!-- Door -->
      <path d="M27,50 L33,50 L33,44 L27,44 Z" 
            fill="#0891b2" 
            stroke="#22d3ee" 
            stroke-width="0.8" />
      
      <!-- Windows -->
      <rect x="19" y="30" width="7" height="5" rx="1" 
            fill="#ecfeff" 
            fill-opacity="0.9" 
            stroke="#22d3ee" 
            stroke-width="0.5" />
      
      <rect x="34" y="30" width="7" height="5" rx="1" 
            fill="#ecfeff" 
            fill-opacity="0.9" 
            stroke="#22d3ee" 
            stroke-width="0.5" />
    </g>
    
    <!-- AI Circuit Pattern -->
    <g>
      <!-- Nodes -->
      <circle cx="30" cy="5" r="1.5" fill="#22d3ee" />
      <circle cx="5" cy="20" r="1.5" fill="#22d3ee" />
      <circle cx="55" cy="20" r="1.5" fill="#22d3ee" />
      <circle cx="5" cy="50" r="1.5" fill="#22d3ee" />
      <circle cx="55" cy="50" r="1.5" fill="#22d3ee" />
      <circle cx="30" cy="65" r="1.5" fill="#22d3ee" />
      
      <!-- Connections -->
      <path d="M30,5 L5,20 M30,5 L55,20 M5,20 L5,50 M55,20 L55,50 M5,50 L30,65 M55,50 L30,65" 
            stroke="#22d3ee" 
            stroke-width="0.8" 
            opacity="0.7" />
      
      <!-- Pulse Animation (Simulated with Gradient) -->
      <path d="M30,5 L5,20 L5,50 L30,65 L55,50 L55,20 Z" 
            stroke="url(#glowGradient)" 
            stroke-width="0.5" 
            fill="none" 
            opacity="0.5" 
            filter="url(#glow)" />
    </g>
  </g>
  
  <!-- Text: BuildWise -->
  <text x="75" y="35" 
        font-family="'Segoe UI', Arial, sans-serif" 
        font-weight="700" 
        font-size="26" 
        letter-spacing="0.5" 
        fill="url(#textGradient)">
    BuildWise
  </text>
  
  <!-- Text: .ai -->
  <text x="190" y="35" 
        font-family="'Segoe UI', Arial, sans-serif" 
        font-weight="700" 
        font-size="26" 
        fill="#0891b2">
    .ai
  </text>
  
  <!-- Tagline -->
  <text x="75" y="48" 
        font-family="'Segoe UI', Arial, sans-serif" 
        font-size="10" 
        letter-spacing="0.5" 
        fill="#94a3b8">
    AI-Powered Floor Plans
  </text>
</svg>
