<?xml version="1.0" encoding="UTF-8"?>
<svg width="240" height="60" viewBox="0 0 240 60" fill="none" xmlns="http://www.w3.org/2000/svg">
  <!-- Gradient Definitions -->
  <defs>
    <linearGradient id="buildingGradient" x1="0%" y1="0%" x2="100%" y2="100%">
      <stop offset="0%" stop-color="#06B6D4" /> <!-- Cyan-500 -->
      <stop offset="100%" stop-color="#0D9488" /> <!-- Teal-600 -->
    </linearGradient>
    
    <linearGradient id="textGradient" x1="0%" y1="0%" x2="100%" y2="0%">
      <stop offset="0%" stop-color="#0EA5E9" /> <!-- Sky-500 -->
      <stop offset="100%" stop-color="#14B8A6" /> <!-- Teal-500 -->
    </linearGradient>
    
    <linearGradient id="glassGradient" x1="0%" y1="0%" x2="100%" y2="100%">
      <stop offset="0%" stop-color="#E0F2FE" stop-opacity="0.9" /> <!-- Sky-100 -->
      <stop offset="100%" stop-color="#CCFBF1" stop-opacity="0.7" /> <!-- Teal-100 -->
    </linearGradient>
    
    <filter id="glow" x="-20%" y="-20%" width="140%" height="140%">
      <feGaussianBlur stdDeviation="1" result="blur" />
      <feComposite in="SourceGraphic" in2="blur" operator="over" />
    </filter>
    
    <filter id="shadow" x="-10%" y="-10%" width="120%" height="130%">
      <feDropShadow dx="0" dy="2" stdDeviation="2" flood-color="#0F172A" flood-opacity="0.3" />
    </filter>
  </defs>

  <!-- Smart Building Icon -->
  <g transform="translate(10, 5)" filter="url(#shadow)">
    <!-- 3D Building Base -->
    <path d="M5 45H45V15L25 5L5 15V45Z" fill="url(#buildingGradient)" />
    
    <!-- Building Outline with Glow -->
    <path d="M5 45H45V15L25 5L5 15V45Z" stroke="#0EA5E9" stroke-width="1.5" stroke-linejoin="round" filter="url(#glow)" fill="none" />
    
    <!-- Smart Windows with Glass Effect -->
    <rect x="12" y="20" width="8" height="8" rx="1" fill="url(#glassGradient)" />
    <rect x="30" y="20" width="8" height="8" rx="1" fill="url(#glassGradient)" />
    <rect x="12" y="32" width="8" height="8" rx="1" fill="url(#glassGradient)" />
    <rect x="30" y="32" width="8" height="8" rx="1" fill="url(#glassGradient)" />
    
    <!-- Smart Door with Glow -->
    <rect x="21" y="33" width="8" height="12" rx="1" fill="#0EA5E9" filter="url(#glow)" />
    
    <!-- Roof Highlight -->
    <path d="M25 5L45 15L25 10L5 15L25 5Z" fill="#FFFFFF" opacity="0.3" />
    
    <!-- Circuit Board Lines (Smart Building) -->
    <path d="M25 5V2M35 12L40 8M15 12L10 8" stroke="#0EA5E9" stroke-width="1" stroke-linecap="round" />
    <circle cx="25" cy="2" r="1.5" fill="#0EA5E9" filter="url(#glow)" />
    <circle cx="40" cy="8" r="1.5" fill="#0EA5E9" filter="url(#glow)" />
    <circle cx="10" cy="8" r="1.5" fill="#0EA5E9" filter="url(#glow)" />
    
    <!-- Floor Plan Grid (Subtle) -->
    <path d="M5 25H45" stroke="#0EA5E9" stroke-width="0.5" stroke-dasharray="2 2" opacity="0.5" />
    <path d="M5 35H45" stroke="#0EA5E9" stroke-width="0.5" stroke-dasharray="2 2" opacity="0.5" />
    <path d="M25 15V45" stroke="#0EA5E9" stroke-width="0.5" stroke-dasharray="2 2" opacity="0.5" />
    
    <!-- Data Visualization Elements -->
    <path d="M5 45L10 42L15 44L20 40L25 43L30 39L35 41L40 38L45 45" stroke="#14B8A6" stroke-width="1.5" stroke-linecap="round" stroke-linejoin="round" opacity="0.7" />
  </g>
  
  <!-- Text with Modern Typography -->
  <g transform="translate(65, 35)" filter="url(#shadow)">
    <!-- BuildWise -->
    <text font-family="'Segoe UI', Arial, sans-serif" font-weight="700" font-size="28" fill="url(#textGradient)" letter-spacing="0.5">BuildWise</text>
    
    <!-- .ai with Glow -->
    <text font-family="'Segoe UI', Arial, sans-serif" font-weight="700" font-size="28" x="140" fill="#0EA5E9" filter="url(#glow)">.ai</text>
  </g>
  
  <!-- Tagline -->
  <text font-family="'Segoe UI', Arial, sans-serif" font-size="12" x="65" y="48" fill="#94A3B8" letter-spacing="0.5">Intelligent Construction Planning</text>
</svg>
