<?xml version="1.0" encoding="UTF-8"?>
<svg width="200" height="50" viewBox="0 0 200 50" fill="none" xmlns="http://www.w3.org/2000/svg">
  <!-- Building Icon -->
  <g transform="translate(0, 5)">
    <!-- Building Base -->
    <path d="M10 40H40V10L25 2L10 10V40Z" fill="url(#building-gradient)" stroke="#0891b2" stroke-width="2"/>
    
    <!-- Windows -->
    <rect x="15" y="15" width="6" height="6" rx="1" fill="#e0f2fe"/>
    <rect x="29" y="15" width="6" height="6" rx="1" fill="#e0f2fe"/>
    <rect x="15" y="25" width="6" height="6" rx="1" fill="#e0f2fe"/>
    <rect x="29" y="25" width="6" height="6" rx="1" fill="#e0f2fe"/>
    
    <!-- Door -->
    <rect x="22" y="30" width="6" height="10" rx="1" fill="#0e7490"/>
    
    <!-- Roof Line -->
    <path d="M10 10L25 2L40 10" stroke="#0891b2" stroke-width="2" stroke-linecap="round"/>
    
    <!-- Floor Plan Grid Lines -->
    <path d="M10 20H40" stroke="#0e7490" stroke-width="1" stroke-dasharray="2 2"/>
    <path d="M10 30H40" stroke="#0e7490" stroke-width="1" stroke-dasharray="2 2"/>
    <path d="M25 10V40" stroke="#0e7490" stroke-width="1" stroke-dasharray="2 2"/>
  </g>
  
  <!-- Text -->
  <g transform="translate(50, 30)">
    <!-- BuildWise -->
    <text font-family="Arial, sans-serif" font-weight="700" font-size="24" fill="url(#text-gradient)">BuildWise</text>
    
    <!-- .ai -->
    <text font-family="Arial, sans-serif" font-weight="700" font-size="24" x="120" fill="#0891b2">.ai</text>
  </g>
  
  <!-- Tagline -->
  <text font-family="Arial, sans-serif" font-size="10" x="50" y="42" fill="#94a3b8">AI-Powered Floor Plans</text>
  
  <!-- Gradients -->
  <defs>
    <linearGradient id="building-gradient" x1="10" y1="2" x2="40" y2="40" gradientUnits="userSpaceOnUse">
      <stop offset="0" stop-color="#0891b2"/>
      <stop offset="1" stop-color="#0e7490"/>
    </linearGradient>
    
    <linearGradient id="text-gradient" x1="0" y1="0" x2="120" y2="0" gradientUnits="userSpaceOnUse">
      <stop offset="0" stop-color="#0891b2"/>
      <stop offset="1" stop-color="#14b8a6"/>
    </linearGradient>
  </defs>
</svg>
